<svg xmlns="http://www.w3.org/2000/svg" width="36.408" height="36.408"><path d="M.152 36.256C.001 36.105 0 36.003 0 18.204L.152.152C.303.001.405 0 18.204 0l18.052.152c.15.15.152.253.152 18.052l-.152 18.052c-.15.15-.253.152-18.052.152s-17.9-.001-18.052-.152zm8.97-2.143c.067-1.768.498-2.826 1.64-4.02l.345-.36H9.463c-1.746 0-1.952-.035-2.097-.353-.056-.123-.084-1.004-.084-2.646v-2.462h-.945c-1.018 0-1.266-.063-1.398-.353-.118-.26-.118-7.53 0-7.79.132-.29.38-.353 1.398-.353h.945v-1.55c0-1.65.037-1.86.353-2.005.13-.06 1.652-.084 5.074-.084h4.89v-.678c0-.618-.014-.682-.157-.727-.25-.08-.673-.49-.85-.826-.225-.427-.226-1.18-.002-1.6a1.72 1.72 0 0 1 1.616-.981 1.72 1.72 0 0 1 1.616.981c.223.42.222 1.173-.002 1.6-.177.336-.6.746-.85.826-.143.045-.157.11-.157.727v.678h4.89c3.42 0 4.944.025 5.074.084.316.144.353.356.353 2.005v1.55h.945c1.018 0 1.266.063 1.398.353.118.26.118 7.53 0 7.79-.132.29-.38.353-1.398.353h-.945v2.462c0 1.642-.028 2.523-.084 2.646-.145.32-.35.353-2.097.353H25.3l.345.36c.726.76 1.128 1.434 1.433 2.408.125.4.176.8.207 1.612l.04 1.08h7.867V6.068H1.214v29.126H9.08zm16.97.228c-.001-1.03-.133-1.64-.512-2.362-.538-1.026-1.618-1.86-2.756-2.13-.717-.17-8.52-.17-9.238 0-1.138.268-2.218 1.102-2.756 2.13-.38.723-.51 1.33-.512 2.362l-.001.853h15.777l-.001-.853zm1.82-13.406V13.35H8.495v15.17h19.417zm-13.74 6.226c-.39-.316-.143-1.786.454-2.71a4.1 4.1 0 0 1 3.577-1.962c2.244 0 4.03 1.656 4.225 3.918.04.47.03.518-.153.702l-.197.197h-3.863c-3.692 0-3.87-.006-4.042-.145zm6.955-1.277c-.3-1.232-1.6-2.22-2.924-2.22s-2.625.986-2.924 2.22l-.05.21h5.95zm-9.6-4.684l-.413-.418 1.662-1.667-1.664-1.67.87-.87 1.67 1.664 1.67-1.664.87.87-1.664 1.67 1.664 1.67-.87.87-1.67-1.664-.817.814c-.45.448-.834.814-.856.814s-.225-.188-.452-.418zm9.102 0l-.413-.418 1.662-1.667-1.664-1.67.87-.87 1.67 1.664 1.67-1.664.87.87-1.664 1.67 1.664 1.67-.87.87-1.67-1.664-.817.814c-.45.448-.834.814-.856.814s-.225-.188-.452-.418zm-13.35-1.175V17H6.068v6.068h1.214zm23.058 0V17h-1.214v6.068h1.214zM18.624 9.523c.376-.376.1-1.027-.42-1.027-.148 0-.303.07-.42.186s-.186.273-.186.42.07.303.186.42.273.186.42.186.303-.07.42-.186zm16.57-6.49v-1.82H1.214v3.64h33.98zm-32.767 0v-.607H3.64V3.64H2.427zm2.427 0v-.607h1.214V3.64H4.854zm2.427 0v-.607h1.214V3.64H7.282zm8.495 0v-.607H33.98V3.64H15.777z" fill="#eaecec"/><path d="M.152 36.256C.001 36.105 0 36.003 0 18.204L.152.152C.303.001.405 0 18.204 0l18.052.152c.15.15.152.253.152 18.052l-.152 18.052c-.15.15-.253.152-18.052.152s-17.9-.001-18.052-.152zm8.97-2.143c.067-1.768.498-2.826 1.64-4.02l.345-.36H9.463c-1.746 0-1.952-.035-2.097-.353-.056-.123-.084-1.004-.084-2.646v-2.462h-.945c-1.018 0-1.266-.063-1.398-.353-.118-.26-.118-7.53 0-7.79.132-.29.38-.353 1.398-.353h.945v-1.55c0-1.65.037-1.86.353-2.005.13-.06 1.652-.084 5.074-.084h4.89v-.678c0-.618-.014-.682-.157-.727-.25-.08-.673-.49-.85-.826-.225-.427-.226-1.18-.002-1.6a1.72 1.72 0 0 1 1.616-.981 1.72 1.72 0 0 1 1.616.981c.223.42.222 1.173-.002 1.6-.177.336-.6.746-.85.826-.143.045-.157.11-.157.727v.678h4.89c3.42 0 4.944.025 5.074.084.316.144.353.356.353 2.005v1.55h.945c1.018 0 1.266.063 1.398.353.118.26.118 7.53 0 7.79-.132.29-.38.353-1.398.353h-.945v2.462c0 1.642-.028 2.523-.084 2.646-.145.32-.35.353-2.097.353H25.3l.345.36c.726.76 1.128 1.434 1.433 2.408.125.4.176.8.207 1.612l.04 1.08h7.867V6.068H1.214v29.126H9.08zm16.97.228c-.001-1.03-.133-1.64-.512-2.362-.538-1.026-1.618-1.86-2.756-2.13-.717-.17-8.52-.17-9.238 0-1.138.268-2.218 1.102-2.756 2.13-.38.723-.51 1.33-.512 2.362l-.001.853h15.777l-.001-.853zm1.82-13.406V13.35H8.495v15.17h19.417zM14.29 27.232c-.72-.29-.158-2.45.92-3.527a4.28 4.28 0 0 1 5.987 0c.65.65 1.115 1.63 1.227 2.583.057.484-.056.8-.323.93-.225.103-7.56.114-7.81.012zm6.837-1.348a3.32 3.32 0 0 0-1.351-1.787c-1.262-.738-2.844-.504-3.803.562-.338.376-.6.838-.694 1.225l-.05.21h5.95zm-9.6-4.684l-.413-.418 1.662-1.667-1.664-1.67.87-.87 1.67 1.664 1.67-1.664.87.87-1.664 1.67 1.664 1.67-.87.87-1.67-1.664-.817.814c-.45.448-.834.814-.856.814s-.225-.188-.452-.418zm9.102 0l-.413-.418 1.662-1.667-1.664-1.67.87-.87 1.67 1.664 1.67-1.664.87.87-1.664 1.67 1.664 1.67-.87.87-1.67-1.664-.817.814c-.45.448-.834.814-.856.814s-.225-.188-.452-.418zm-13.35-1.175V17H6.068v6.068h1.214zm23.058 0V17h-1.214v6.068h1.214zM18.624 9.523c.376-.376.1-1.027-.42-1.027-.148 0-.303.07-.42.186s-.186.273-.186.42.07.303.186.42.273.186.42.186.303-.07.42-.186zm16.57-6.49v-1.82H1.214v3.64h33.98zm-32.767 0v-.607H3.64V3.64H2.427zm2.427 0v-.607h1.214V3.64H4.854zm2.427 0v-.607h1.214V3.64H7.282zm8.495 0v-.607H33.98V3.64H15.777z" fill="#d2d1d0"/><path d="M.152 36.256C.001 36.105 0 36.003 0 18.204L.152.152C.303.001.405 0 18.204 0l18.052.152c.15.15.152.253.152 18.052l-.152 18.052c-.15.15-.253.152-18.052.152s-17.9-.001-18.052-.152zm8.97-2.143c.044-1.177.178-1.753.6-2.59.267-.53.78-1.214 1.16-1.55l.273-.24H9.487c-1.77 0-1.976-.034-2.122-.353-.056-.123-.084-1.004-.084-2.646v-2.462h-.945c-1.018 0-1.266-.063-1.398-.353-.118-.26-.118-7.53 0-7.79.132-.29.38-.353 1.398-.353h.945v-1.55c0-1.65.037-1.86.353-2.005.13-.06 1.652-.084 5.074-.084h4.89v-.678c0-.618-.014-.682-.157-.727-.25-.08-.673-.49-.85-.826-.225-.427-.226-1.18-.002-1.6a1.72 1.72 0 0 1 1.616-.981 1.72 1.72 0 0 1 1.616.981c.223.42.222 1.173-.002 1.6-.177.336-.6.746-.85.826-.143.045-.157.11-.157.727v.678h4.89c3.42 0 4.944.025 5.074.084.316.144.353.356.353 2.005v1.55h.945c1.018 0 1.266.063 1.398.353.118.26.118 7.53 0 7.79-.132.29-.38.353-1.398.353h-.945v2.462c0 1.642-.028 2.523-.084 2.646-.145.32-.35.353-2.097.353H25.3l.345.36c.726.76 1.128 1.434 1.433 2.408.125.4.176.8.207 1.612l.04 1.08h7.867V6.068H1.214v29.126H9.08zm16.97.228c-.001-1.03-.133-1.64-.512-2.362-.538-1.026-1.618-1.86-2.756-2.13-.717-.17-8.52-.17-9.238 0-1.138.268-2.218 1.102-2.756 2.13-.38.723-.51 1.33-.512 2.362l-.001.853h15.777l-.001-.853zm1.82-13.406V13.35H8.495v15.17h19.417zM14.29 27.232c-.72-.29-.158-2.45.92-3.527a4.28 4.28 0 0 1 5.987 0c.65.65 1.115 1.63 1.227 2.583.057.484-.056.8-.323.93-.225.103-7.56.114-7.81.012zm6.837-1.348c-.158-.65-.756-1.438-1.358-1.79a3.14 3.14 0 0 0-3.132 0c-.602.352-1.2 1.14-1.358 1.79l-.05.21h5.95zm-9.6-4.684l-.413-.418 1.662-1.667-1.664-1.67.87-.87 1.67 1.664 1.67-1.664.87.87-1.664 1.67 1.664 1.67-.87.87-1.67-1.664-.817.814c-.45.448-.834.814-.856.814s-.225-.188-.452-.418zm9.102 0l-.413-.418 1.662-1.667-1.664-1.67.87-.87 1.67 1.664 1.67-1.664.87.87-1.664 1.67 1.664 1.67-.87.87-1.67-1.664-.817.814c-.45.448-.834.814-.856.814s-.225-.188-.452-.418zm-13.35-1.175V17H6.068v6.068h1.214zm23.058 0V17h-1.214v6.068h1.214zM18.624 9.523c.376-.376.1-1.027-.42-1.027-.148 0-.303.07-.42.186s-.186.273-.186.42.07.303.186.42.273.186.42.186.303-.07.42-.186zm16.57-6.49v-1.82H1.214v3.64h33.98zm-32.767 0v-.607H3.64V3.64H2.427zm2.427 0v-.607h1.214V3.64H4.854zm2.427 0v-.607h1.214V3.64H7.282zm8.495 0v-.607H33.98V3.64H15.777z" fill="#b8b8b5"/><path d="M.152 36.256C.001 36.105 0 36.003 0 18.204L.152.152C.303.001.405 0 18.204 0l18.052.152c.15.15.152.253.152 18.052l-.152 18.052c-.15.15-.253.152-18.052.152s-17.9-.001-18.052-.152zm8.97-2.143c.044-1.177.178-1.753.6-2.59.267-.53.78-1.214 1.16-1.55l.273-.24H9.487c-1.77 0-1.976-.034-2.122-.353-.056-.123-.084-1.004-.084-2.646v-2.462h-.945c-1.018 0-1.266-.063-1.398-.353-.118-.26-.118-7.53 0-7.79.132-.29.38-.353 1.398-.353h.945v-1.55c0-1.65.037-1.86.353-2.005.13-.06 1.652-.084 5.074-.084h4.89v-.678c0-.618-.014-.682-.157-.727-.25-.08-.673-.49-.85-.826-.225-.427-.226-1.18-.002-1.6a1.72 1.72 0 0 1 1.616-.981 1.72 1.72 0 0 1 1.616.981c.223.42.222 1.173-.002 1.6-.177.336-.6.746-.85.826-.143.045-.157.11-.157.727v.678h4.89c3.42 0 4.944.025 5.074.084.316.144.353.356.353 2.005v1.55h.945c1.018 0 1.266.063 1.398.353.118.26.118 7.53 0 7.79-.132.29-.38.353-1.398.353h-.945v2.462c0 1.642-.028 2.523-.084 2.646-.145.32-.35.353-2.122.353h-1.668l.273.24c.382.335.894 1.02 1.16 1.55.422.838.555 1.414.6 2.59l.04 1.08h7.867V6.068H1.214v29.126H9.08zm16.97.228c-.001-1.03-.133-1.64-.512-2.362-.538-1.026-1.618-1.86-2.756-2.13-.717-.17-8.52-.17-9.238 0-1.138.268-2.218 1.102-2.756 2.13-.38.723-.51 1.33-.512 2.362l-.001.853h15.777l-.001-.853zm1.82-13.406V13.35H8.495v15.17h19.417zM14.29 27.232c-.72-.29-.158-2.45.92-3.527a4.28 4.28 0 0 1 5.987 0c.65.65 1.115 1.63 1.227 2.583.057.484-.056.8-.323.93-.225.103-7.56.114-7.81.012zm6.838-1.348c-.188-.786-.986-1.69-1.765-2-.35-.14-.586-.174-1.16-.174s-.8.036-1.16.174c-.8.313-1.576 1.204-1.766 2l-.05.21h5.95zm-9.6-4.684l-.413-.418 1.662-1.667-1.664-1.67.87-.87 1.67 1.664 1.67-1.664.87.87-1.664 1.67 1.664 1.67-.87.87-1.67-1.664-.817.814c-.45.448-.834.814-.856.814s-.225-.188-.452-.418zm9.102 0l-.413-.418 1.662-1.667-1.664-1.67.87-.87 1.67 1.664 1.67-1.664.87.87-1.664 1.67 1.664 1.67-.87.87-1.67-1.664-.817.814c-.45.448-.834.814-.856.814s-.225-.188-.452-.418zm-13.35-1.175V17H6.068v6.068h1.214zm23.058 0V17h-1.214v6.068h1.214zM18.624 9.523c.376-.376.1-1.027-.42-1.027-.148 0-.303.07-.42.186s-.186.273-.186.42.07.303.186.42.273.186.42.186.303-.07.42-.186zm16.57-6.49v-1.82H1.214v3.64h33.98zm-32.767 0v-.607H3.64V3.64H2.427zm2.427 0v-.607h1.214V3.64H4.854zm2.427 0v-.607h1.214V3.64H7.282zm8.495 0v-.607H33.98V3.64H15.777z" fill="#959491"/><path d="M.152 36.256C.001 36.105 0 36.003 0 18.204L.152.152C.303.001.405 0 18.204 0l18.052.152c.15.15.152.253.152 18.052l-.152 18.052c-.15.15-.253.152-18.052.152s-17.9-.001-18.052-.152zm8.97-2.143c.044-1.177.178-1.753.6-2.59.267-.53.78-1.214 1.16-1.55l.273-.24H9.487c-1.77 0-1.976-.034-2.122-.353-.056-.123-.084-1.004-.084-2.646v-2.462h-.945c-1.018 0-1.266-.063-1.398-.353-.118-.26-.118-7.53 0-7.79.132-.29.38-.353 1.398-.353h.945v-1.55c0-1.65.037-1.86.353-2.005.13-.06 1.652-.084 5.074-.084h4.89v-.678c0-.618-.014-.682-.157-.727-.25-.08-.673-.49-.85-.826-.225-.427-.226-1.18-.002-1.6a1.72 1.72 0 0 1 1.616-.981 1.72 1.72 0 0 1 1.616.981c.223.42.222 1.173-.002 1.6-.177.336-.6.746-.85.826-.143.045-.157.11-.157.727v.678h4.89c3.42 0 4.944.025 5.074.084.316.144.353.356.353 2.005v1.55h.945c1.018 0 1.266.063 1.398.353.118.26.118 7.53 0 7.79-.132.29-.38.353-1.398.353h-.945v2.462c0 1.642-.028 2.523-.084 2.646-.145.32-.35.353-2.122.353h-1.668l.273.24c.382.335.894 1.02 1.16 1.55.422.838.555 1.414.6 2.59l.04 1.08h7.867V6.068H1.214v29.126H9.08zm16.97.228c-.001-1.03-.133-1.64-.512-2.362-.538-1.026-1.618-1.86-2.756-2.13-.717-.17-8.52-.17-9.238 0-1.138.268-2.218 1.102-2.756 2.13-.38.723-.51 1.33-.512 2.362l-.001.853h15.777l-.001-.853zm1.82-13.406V13.35H8.495v15.17h19.417zM14.29 27.232c-.72-.29-.158-2.45.92-3.527a4.28 4.28 0 0 1 5.987 0c.65.65 1.115 1.63 1.227 2.583.057.484-.056.8-.323.93-.225.103-7.56.114-7.81.012zm6.838-1.348c-.2-.796-.976-1.687-1.766-2-.35-.14-.586-.174-1.16-.174s-.8.036-1.16.174c-.8.313-1.576 1.204-1.766 2l-.05.21h5.95zm-9.6-4.684l-.413-.418 1.662-1.667-1.664-1.67.87-.87 1.67 1.664 1.67-1.664.87.87-1.664 1.67 1.664 1.67-.87.87-1.67-1.664-.817.814c-.45.448-.834.814-.856.814s-.225-.188-.452-.418zm9.102 0l-.413-.418 1.662-1.667-1.664-1.67.87-.87 1.67 1.664 1.67-1.664.87.87-1.664 1.67 1.664 1.67-.87.87-1.67-1.664-.817.814c-.45.448-.834.814-.856.814s-.225-.188-.452-.418zm-13.35-1.175V17H6.068v6.068h1.214zm23.058 0V17h-1.214v6.068h1.214zM18.624 9.523c.376-.376.1-1.027-.42-1.027-.148 0-.303.07-.42.186s-.186.273-.186.42.07.303.186.42.273.186.42.186.303-.07.42-.186zm16.57-6.49v-1.82H1.214v3.64h33.98zm-32.767 0v-.607H3.64V3.64H2.427zm2.427 0v-.607h1.214V3.64H4.854zm2.427 0v-.607h1.214V3.64H7.282zm8.495 0v-.607H33.98V3.64H15.777z" fill="#6c7374"/><path d="M.152 36.256C.001 36.105 0 36.003 0 18.204L.152.152C.303.001.405 0 18.204 0l18.052.152c.15.15.152.253.152 18.052l-.152 18.052c-.15.15-.253.152-18.052.152s-17.9-.001-18.052-.152zm8.97-2.143c.044-1.177.178-1.753.6-2.59.267-.53.78-1.214 1.16-1.55l.273-.24H9.487c-1.77 0-1.976-.034-2.122-.353-.056-.123-.084-1.004-.084-2.646v-2.462h-.945c-1.018 0-1.266-.063-1.398-.353-.118-.26-.118-7.53 0-7.79.132-.29.38-.353 1.398-.353h.945v-1.55c0-1.65.037-1.86.353-2.005.13-.06 1.652-.084 5.074-.084h4.89v-.678c0-.618-.014-.682-.157-.727-.25-.08-.673-.49-.85-.826-.225-.427-.226-1.18-.002-1.6a1.72 1.72 0 0 1 1.616-.981 1.72 1.72 0 0 1 1.616.981c.223.42.222 1.173-.002 1.6-.177.336-.6.746-.85.826-.143.045-.157.11-.157.727v.678h4.89c3.42 0 4.944.025 5.074.084.316.144.353.356.353 2.005v1.55h.945c1.018 0 1.266.063 1.398.353.118.26.118 7.53 0 7.79-.132.29-.38.353-1.398.353h-.945v2.462c0 1.642-.028 2.523-.084 2.646-.145.32-.35.353-2.122.353h-1.668l.273.24c.382.335.894 1.02 1.16 1.55.422.838.555 1.414.6 2.59l.04 1.08h7.867V6.068H1.214v29.126H9.08zm16.97.228c-.001-1.03-.133-1.64-.512-2.362-.538-1.026-1.618-1.86-2.756-2.13-.717-.17-8.52-.17-9.238 0-1.138.268-2.218 1.102-2.756 2.13-.38.723-.51 1.33-.512 2.362l-.001.853h15.777l-.001-.853zm1.82-13.406V13.35H8.495v15.17h19.417zm-13.628 6.28c-.707-.342-.155-2.418.932-3.504 1.64-1.64 4.367-1.64 5.98 0a4.51 4.51 0 0 1 1.227 2.578c.057.484-.056.8-.323.93-.253.115-7.578.11-7.817-.004zm6.845-1.332c-.2-.796-.976-1.687-1.766-2-.35-.14-.586-.174-1.16-.174s-.8.036-1.16.174c-.8.313-1.576 1.204-1.766 2l-.05.21h5.95zm-9.6-4.684l-.413-.418 1.662-1.667-1.664-1.67.87-.87 1.67 1.664 1.67-1.664.87.87-1.664 1.67 1.664 1.67-.87.87-1.67-1.664-.817.814c-.45.448-.834.814-.856.814s-.225-.188-.452-.418zm9.102 0l-.413-.418 1.662-1.667-1.664-1.67.87-.87 1.67 1.664 1.67-1.664.87.87-1.664 1.67 1.664 1.67-.87.87-1.67-1.664-.817.814c-.45.448-.834.814-.856.814s-.225-.188-.452-.418zm-13.35-1.175V17H6.068v6.068h1.214zm23.058 0V17h-1.214v6.068h1.214zM18.624 9.523c.376-.376.1-1.027-.42-1.027-.148 0-.303.07-.42.186s-.186.273-.186.42.07.303.186.42.273.186.42.186.303-.07.42-.186zm16.57-6.49v-1.82H1.214v3.64h33.98zm-32.767 0v-.607H3.64V3.64H2.427zm2.427 0v-.607h1.214V3.64H4.854zm2.427 0v-.607h1.214V3.64H7.282zm8.495 0v-.607H33.98V3.64H15.777z" fill="#282725"/><path d="M.152 36.256C.001 36.105 0 36.003 0 18.204L.152.152C.303.001.405 0 18.204 0l18.052.152c.15.15.152.253.152 18.052l-.152 18.052c-.15.15-.253.152-18.052.152s-17.9-.001-18.052-.152zm8.97-2.143c.044-1.177.178-1.753.6-2.59.267-.53.78-1.214 1.16-1.55l.273-.24H9.487c-1.77 0-1.976-.034-2.122-.353-.056-.123-.084-1.004-.084-2.646v-2.462h-.945c-1.018 0-1.266-.063-1.398-.353-.118-.26-.118-7.53 0-7.79.132-.29.38-.353 1.398-.353h.945v-1.55c0-1.65.037-1.86.353-2.005.13-.06 1.652-.084 5.074-.084h4.89v-.678c0-.618-.014-.682-.157-.727-.25-.08-.673-.49-.85-.826-.225-.427-.226-1.18-.002-1.6a1.72 1.72 0 0 1 1.616-.981 1.72 1.72 0 0 1 1.616.981c.223.42.222 1.173-.002 1.6-.177.336-.6.746-.85.826-.143.045-.157.11-.157.727v.678h4.89c3.42 0 4.944.025 5.074.084.316.144.353.356.353 2.005v1.55h.945c1.018 0 1.266.063 1.398.353.118.26.118 7.53 0 7.79-.132.29-.38.353-1.398.353h-.945v2.462c0 1.642-.028 2.523-.084 2.646-.145.32-.35.353-2.122.353h-1.668l.273.24c.382.335.894 1.02 1.16 1.55.422.838.555 1.414.6 2.59l.04 1.08h7.867V6.068H1.214v29.126H9.08zm16.97.228c-.001-1.03-.133-1.64-.512-2.362-.538-1.026-1.618-1.86-2.756-2.13-.717-.17-8.52-.17-9.238 0-1.138.268-2.218 1.102-2.756 2.13-.38.723-.51 1.33-.512 2.362l-.001.853h15.777l-.001-.853zm1.82-13.406V13.35H8.495v15.17h19.417zm-13.628 6.28c-.707-.342-.155-2.418.932-3.504 1.64-1.64 4.367-1.64 5.98 0a4.51 4.51 0 0 1 1.227 2.578c.057.484-.056.8-.323.93-.253.115-7.578.11-7.817-.004zm6.845-1.332c-.2-.796-.976-1.687-1.766-2-.35-.14-.586-.174-1.16-.174s-.8.036-1.16.174c-.61.242-1.28.877-1.57 1.49-.377.8-.643.72 2.74.72h2.966zm-9.6-4.684l-.413-.418 1.662-1.667-1.664-1.67.87-.87 1.67 1.664 1.67-1.664.87.87-1.664 1.67 1.664 1.67-.87.87-1.67-1.664-.817.814c-.45.448-.834.814-.856.814s-.225-.188-.452-.418zm9.102 0l-.413-.418 1.662-1.667-1.664-1.67.87-.87 1.67 1.664 1.67-1.664.87.87-1.664 1.67 1.664 1.67-.87.87-1.67-1.664-.817.814c-.45.448-.834.814-.856.814s-.225-.188-.452-.418zm-13.35-1.175V17H6.068v6.068h1.214zm23.058 0V17h-1.214v6.068h1.214zM18.624 9.523c.376-.376.1-1.027-.42-1.027-.148 0-.303.07-.42.186s-.186.273-.186.42.07.303.186.42.273.186.42.186.303-.07.42-.186zm16.57-6.49v-1.82H1.214v3.64h33.98zm-32.767 0v-.607H3.64V3.64H2.427zm2.427 0v-.607h1.214V3.64H4.854zm2.427 0v-.607h1.214V3.64H7.282zm8.495 0v-.607H33.98V3.64H15.777z"/></svg>